# xmcd
#
# Track frame offsets:
#	182
#	35577
#	50822
#	64697
#	75965
#	86305
#	101517
#	115777
#	128610
#	143517
#
# Disc length: 2122
#
# Revision: 2
# Processed by: cddbd v1.5.1PL0 Copyright (c) Steve Scherf et al.
# Submitted via: audiograbber 1.83.01
# Normalized: r1:DSETVAR1
#
DISCID=7408480a
DTITLE=Various Artist - 25 Years of R&B - 1971
DYEAR=2000
DGENRE=Soul
TTITLE0=Curtis Mayfield - (Don't Worry) If There's a Hell Below We're All Going to Go
TTITLE1=Donnie Elbert - Where Did Our Love Go
TTITLE2=The 8th Day - She's Not Just Another Woman
TTITLE3=Jean Knight - Mr. Big Stuff
TTITLE4=Wilson Pickett - Don't Knock My Love, Part 1
TTITLE5=Joe Simon - Drowning in a Sea of Love
TTITLE6=Millie Jackson - Ask Me What You Want
TTITLE7=King Floyd - Baby Let Me Kiss You
TTITLE8=Rufus Thomas - The Breakdown, Part 1
TTITLE9=Aretha Franklin - Spanish Harlem
EXTD=
EXTT0=
EXTT1=
EXTT2=
EXTT3=
EXTT4=
EXTT5=
EXTT6=
EXTT7=
EXTT8=
EXTT9=
PLAYORDER=
